PathFileType	4	(X/Y/Z)	2014001\dynamic\2014001_C3_04.trc
DataRate	CameraRate	NumFrames	NumMarkers	Units	OrigDataRate	OrigDataStartFrame	OrigNumFrames
100.000000	100.000000	4	52	mm	100.000000	22	178
Frame#	Time	L_IAS			L_IPS			R_IPS			R_IAS			L_FTC			L_FLE			L_FME			L_FAX			L_TTC			L_FAL			L_TAM			L_FCC			L_FM1			L_FM2			L_FM5			R_FTC			R_FLE			R_FME			R_FAX			R_TTC			R_FAL			R_TAM			R_FCC			R_FM1			R_FM2			R_FM5			CV7			TV10			SXS			SJN			L_SIA			L_SRS			L_SAA			L_SAE			L_HLE			L_HME			L_UOA			L_RSP			L_UHE			L_HM2			L_HM5			R_SIA			R_SRS			R_SAA			R_SAE			R_HLE			R_HME			R_UOA			R_RSP			R_UHE			R_HM2			R_HM5			
		X1	Y1	Z1	X2	Y2	Z2	X3	Y3	Z3	X4	Y4	Z4	X5	Y5	Z5	X6	Y6	Z6	X7	Y7	Z7	X8	Y8	Z8	X9	Y9	Z9	X10	Y10	Z10	X11	Y11	Z11	X12	Y12	Z12	X13	Y13	Z13	X14	Y14	Z14	X15	Y15	Z15	X16	Y16	Z16	X17	Y17	Z17	X18	Y18	Z18	X19	Y19	Z19	X20	Y20	Z20	X21	Y21	Z21	X22	Y22	Z22	X23	Y23	Z23	X24	Y24	Z24	X25	Y25	Z25	X26	Y26	Z26	X27	Y27	Z27	X28	Y28	Z28	X29	Y29	Z29	X30	Y30	Z30	X31	Y31	Z31	X32	Y32	Z32	X33	Y33	Z33	X34	Y34	Z34	X35	Y35	Z35	X36	Y36	Z36	X37	Y37	Z37	X38	Y38	Z38	X39	Y39	Z39	X40	Y40	Z40	X41	Y41	Z41	X42	Y42	Z42	X43	Y43	Z43	X44	Y44	Z44	X45	Y45	Z45	X46	Y46	Z46	X47	Y47	Z47	X48	Y48	Z48	X49	Y49	Z49	X50	Y50	Z50	X51	Y51	Z51	X52	Y52	Z52	

23	0.22	55.68934631347659	873.9212036132817	236.4390106201173	121.1338500976563	899.7742309570317	420.4253234863284	209.2559204101564	892.2019042968755	424.9756164550784	294.3572387695314	859.639770507813	252.7881317138673	-6.883774280548099	785.899780273438	297.0728454589845	40.63972473144533	439.7842712402346	197.0202636718751	156.0815124511719	439.0850219726565	184.831039428711	37.79915237426759	376.1206054687501	211.236541748047	90.0605163574219	361.151336669922	152.4269256591797	89.26169586181643	62.23829269409183	244.7514495849611	177.5276489257813	72.46807098388675	224.7272796630861	134.0041656494141	22.28205490112305	289.363983154297	163.9789123535157	22.75669860839844	110.5933837890626	102.2727584838868	36.22298812866212	99.59803771972662	55.05175781250003	24.83801460266115	153.4390716552735	342.6756896972657	763.9304199218752	358.6606445312501	340.5478820800782	424.4857177734377	382.6932983398439	226.3008422851564	389.979919433594	347.8940734863282	346.2737121582032	386.9998168945315	433.5762329101565	305.3581848144532	331.078094482422	385.2228698730471	288.981903076172	202.7225952148439	686.2405395507815	212.2898712158204	177.9542999267579	638.893005371094	224.6824493408204	222.5818939208986	727.4702148437502	209.2626495361329	58.47531890869143	660.9765625000002	267.761932373047	53.67784500122073	666.826599121094	304.915740966797	84.5380554199219	707.3877563476565	171.0409698486329	1359.790161132813	423.1658020019534	172.3711853027344	1123.0625	462.7111511230471	159.5282135009766	1153.393676757813	227.5357971191407	159.5440368652344	1309.730590820313	288.8173828125001	83.38435363769534	1157.7939453125	475.4282836914065	86.63919830322268	1289.1533203125	466.131286621094	-24.86416625976564	1292.35009765625	404.769226074219	-15.61194515228272	1307.411376953125	363.6582336425782	-86.07523345947268	1022.970397949219	390.9236145019534	-5.630313396453859	990.2204589843755	410.4714355468752	-54.42740631103518	992.4592285156255	419.9270629882815	-67.93629455566409	784.7702636718755	313.5270080566407	-130.1395874023438	790.7395019531255	366.0350036621095	-80.64054107666018	700.602966308594	291.921112060547	-136.684310913086	714.3820800781252	379.5015869140626	289.9033203125001	1167.664672851563	462.9302368164065	263.0943298339845	1292.010131835938	452.7452392578127	360.0167236328126	1298.6689453125	367.5520324707032	343.7288513183595	1308.512451171875	321.0216674804689	425.722839355469	1005.381774902344	322.2346801757814	351.8226623535157	984.2145996093755	353.1684570312501	397.2023010253909	974.6220092773442	350.0054321289064	377.6982727050782	827.049926757813	179.1329345703126	444.524841308594	809.1361694335942	224.180877685547	386.1008911132815	747.2321777343752	127.6386795043946	440.5252380371096	729.3453369140627	211.6450958251954	
24	0.23	55.12012863159183	874.9730834960942	225.0106964111329	119.4336242675782	901.6908569335942	409.047790527344	207.5588226318361	894.1212768554692	414.2976989746096	293.916473388672	862.000854492188	242.4454650878907	-7.585133552551273	787.099487304688	285.9160766601564	40.19115829467775	439.1802978515627	192.5104522705079	155.8629913330079	438.2646484375002	180.6231384277344	37.50465011596681	375.6513061523439	207.7464294433595	89.60718536376956	359.8624572753907	149.5330810546876	89.40409088134768	62.22489547729495	244.8163299560548	177.666488647461	72.45478057861331	224.6919555664064	134.0919952392579	22.30679512023926	289.4098205566407	163.8274078369141	23.16729736328126	110.6796264648438	102.1585388183594	36.56001663208009	99.71117401123053	55.03143692016604	24.95664405822755	153.5209350585938	341.4270935058595	765.5112304687502	347.349578857422	342.1017456054689	425.0389709472659	360.1609802246095	227.8187713623048	390.6468200683596	324.799774169922	347.9165344238282	388.1349182128909	410.3039245605471	306.8872985839845	331.9000854492189	362.175018310547	289.3711242675782	207.9961700439454	665.165466308594	212.9220428466798	182.0491333007813	617.9265747070315	224.6875152587892	227.9799957275392	706.1158447265627	212.5303955078126	61.90441513061526	641.4427490234377	270.6227111816407	57.43860626220706	647.861511230469	306.8941955566407	90.83042907714847	688.0612792968752	170.1595001220704	1361.866088867188	411.7596435546877	170.3144836425782	1125.03125	451.4737548828127	159.6554718017579	1155.226440429688	216.4023437500001	159.581283569336	1311.73876953125	277.3947143554689	80.98364257812503	1160.311279296875	463.3908691406252	84.9775314331055	1291.52783203125	453.9076232910159	-26.13977432250978	1295.002319335938	391.277526855469	-16.15534019470216	1309.953247070313	350.3367919921876	-87.35878753662112	1025.169677734375	374.2717895507814	-7.233357429504398	992.2730102539067	394.9617004394534	-56.21839141845706	994.1554565429692	403.5707092285159	-66.5866394042969	787.8469238281255	294.2090148925782	-129.9031219482422	792.9829101562505	344.8620910644532	-78.73535156250003	704.1811523437502	270.4248352050782	-136.5877532958985	716.4348144531252	356.9407958984376	288.0679016113282	1169.59765625	452.6951904296877	261.7916564941407	1293.922485351563	442.0443420410159	359.3841552734376	1300.302001953125	357.5730590820314	343.4558105468751	1309.981323242188	310.9685668945314	424.413269042969	1006.7001953125	314.2123107910157	350.3543701171876	986.1148071289067	345.0127868652345	395.6958312988284	976.517211914063	342.2761230468751	377.3313598632814	825.9503784179692	174.0614166259766	444.0337524414065	809.0299682617192	219.5041656494142	385.6206359863284	744.930358886719	124.2845993041993	440.0117492675784	728.9536743164065	208.6758728027345	
25	0.24	54.6347351074219	875.960083007813	213.8546295166017	117.821517944336	903.6482543945317	397.8846130371096	205.9619293212892	896.1459960937505	403.7658996582034	293.5283813476564	864.4607543945317	232.2791442871095	-8.17716217041016	788.233764648438	275.0891113281251	39.78123474121095	438.6306152343752	188.4848937988282	155.663070678711	437.4708251953127	176.931625366211	37.23400878906251	375.2325134277345	204.6857910156251	89.19821929931643	358.6691894531251	147.0400390625001	89.50595855712893	62.18094253540042	244.8943939208986	177.7585754394532	72.42568969726565	224.6616821289064	134.1708984375001	22.34141159057618	289.5094604492189	163.6382598876954	23.46003723144532	110.7468719482422	102.0159988403321	36.72319793701173	99.83118438720709	54.99771118164065	24.9205951690674	153.6253814697266	340.3486633300782	767.3073730468752	336.2059326171876	343.5563964843751	426.0456848144534	337.6690368652345	229.1800689697267	391.977966308594	301.7838439941407	349.3497924804689	389.5530700683596	387.0284423828127	308.2679748535157	333.2019348144532	338.9402160644532	289.6022033691407	212.4299926757814	643.207702636719	213.4289093017579	185.5041656494141	595.959899902344	224.5160980224611	231.8489685058595	684.103454589844	216.1258544921876	64.74919128417972	619.4663085937502	273.8742675781251	60.99515151977542	626.2437133789065	309.2478942871095	96.43613433837896	666.463562011719	169.3384552001954	1363.97412109375	400.4512634277346	168.3162078857422	1127.038208007813	440.4063110351565	159.8510894775391	1157.021240234375	205.4410858154298	159.7119445800782	1313.73291015625	266.089813232422	78.56018066406253	1162.923583984375	451.4729614257815	83.35749816894534	1293.999633789063	441.7784118652346	-27.35051345825197	1297.733032226563	377.768524169922	-16.58664512634278	1312.5400390625	337.0291137695314	-88.58118438720706	1027.486083984375	357.6381835937501	-8.878396034240726	994.4143676757817	379.4691467285157	-58.02156066894534	995.9445190429692	387.1918945312502	-65.10705566406253	791.1524047851567	274.7315063476564	-129.5095520019532	795.4321289062505	323.4893188476564	-76.65942382812503	708.0751953125002	248.6850433349611	-136.3171691894532	718.6895141601565	334.0723571777345	286.2388610839845	1171.5712890625	442.6714477539065	260.5183410644532	1295.862670898438	431.5062561035159	358.810760498047	1301.92333984375	347.7897338867189	343.2640686035157	1311.431396484375	301.1062927246095	423.1363830566409	1008.029907226563	306.2440185546876	348.9302978515626	987.9694213867192	336.8516845703126	394.2532958984377	978.4191894531255	334.6116333007814	377.1001586914064	824.9273071289067	169.0974884033204	443.7101745605471	809.0736694335942	214.8742828369142	385.3166198730471	742.750915527344	121.0404968261719	439.7277526855471	728.7459106445315	205.7701873779298	
26	0.25	54.1850280761719	876.8816528320317	202.9805297851564	116.3285064697266	905.6076049804692	386.9215087890627	204.5047454833986	898.232543945313	393.3412780761721	293.1405639648439	866.992065429688	222.2202148437501	-8.672155380249027	789.2846069335942	264.5858154296876	39.41905212402345	438.1548156738284	184.8538208007813	155.4779357910157	436.7336425781252	173.6282043457032	36.9946975708008	374.8853149414064	201.9593200683595	88.84711456298831	357.596405029297	144.8272705078126	89.57376861572268	62.12886810302737	244.9587860107423	177.8125000000001	72.39127349853518	224.6160583496095	134.2351226806641	22.40890502929688	289.6364746093751	163.4380645751954	23.62217330932618	110.7896194458008	101.8631973266602	36.72484588623048	99.93515777587896	54.94805908203128	24.76647567749025	153.7389526367188	339.4572753906251	769.2905273437505	325.1540832519532	344.8954162597657	427.5112304687502	315.3223266601564	230.3979339599611	393.9397583007815	278.8970947265626	350.5604858398439	391.261169433594	363.8729858398439	309.5289916992189	334.9778442382814	315.6145935058595	289.720916748047	215.8722991943361	620.426452636719	213.8699188232423	188.1756591796876	573.0310058593752	224.2252197265626	234.0917816162111	661.4779052734377	219.9758758544923	66.89465332031253	595.1859130859377	277.445526123047	64.19155120849612	602.1324462890627	311.9183654785157	101.1415176391602	642.7421875000002	168.5815429687501	1366.083374023438	389.2425231933596	166.399887084961	1129.056274414063	429.4908447265627	160.1007537841797	1158.775756835938	194.6242065429689	159.9272766113282	1315.698486328125	254.8987426757814	76.1435241699219	1165.584106445313	439.6585693359377	81.79859924316409	1296.528076171875	429.7547912597659	-28.48184013366701	1300.507080078125	364.2706298828126	-16.90283584594727	1315.147583007813	323.7580566406251	-89.73520660400393	1029.898681640625	341.029754638672	-10.56458377838135	996.621215820313	364.003875732422	-59.8374938964844	997.809204101563	370.7937316894532	-63.50180816650393	794.6746215820317	255.1103820800782	-128.9591217041016	798.0813598632817	301.951873779297	-74.40485382080081	712.274353027344	226.7458343505861	-135.8662261962891	721.1480102539065	310.9383850097657	284.4314880371095	1173.553344726563	432.8257141113284	259.2780151367189	1297.79541015625	421.1187133789065	358.2914123535157	1303.514770507813	338.1954040527345	343.1571044921876	1312.857299804688	291.4187316894532	421.8761901855471	1009.347229003907	298.3492736816407	347.5215148925782	989.7573242187505	328.6802368164064	392.8548889160159	980.3054199218755	327.0269775390626	377.0031738281251	823.9893188476567	164.210189819336	443.5397033691409	809.254516601563	210.2906341552736	385.2074890136721	740.7111816406252	117.8648529052735	439.6658325195315	728.7153930664065	202.8996124267579	
